<?xml version="1.0" encoding="utf-8"?>
<!-- Generator: Adobe Illustrator 16.0.0, SVG Export Plug-In . SVG Version: 6.00 Build 0)  -->
<!DOCTYPE svg PUBLIC "-//W3C//DTD SVG 1.1//EN" "http://www.w3.org/Graphics/SVG/1.1/DTD/svg11.dtd">
<svg version="1.1" id="Layer_1" xmlns="http://www.w3.org/2000/svg" xmlns:xlink="http://www.w3.org/1999/xlink" x="0px" y="0px"
	 width="25.5px" height="30.415px" viewBox="0 0 25.5 30.415" enable-background="new 0 0 25.5 30.415" xml:space="preserve">
<path fill="#3D435F" d="M25.498,9.906c-0.041-1.139-0.966-2.031-2.157-2.031c-0.001,0-0.001,0-0.002,0h-4.062l-0.002-1.87
	c-0.267-3.201-2.782-5.718-5.984-5.984C11.55-0.118,9.853,0.419,8.518,1.549C7.182,2.68,6.366,4.262,6.219,6.068v1.808H2.204
	l-0.13-0.002L2.042,7.875C1.481,7.889,0.96,8.121,0.574,8.528c-0.385,0.407-0.589,0.94-0.573,1.524l0.87,14.969
	c0.136,2.974,2.98,5.394,6.339,5.394h11.08c3.347,0,6.188-2.418,6.339-5.385l0.869-14.993L25.5,9.934L25.498,9.906z M7.716,6.13
	c0.112-1.344,0.74-2.564,1.77-3.436c1.03-0.871,2.337-1.289,3.681-1.178c2.468,0.205,4.409,2.146,4.612,4.551v1.808H7.717
	L7.716,6.13z M23.131,24.95c-0.109,2.187-2.281,3.965-4.841,3.965H7.209c-2.569,0-4.74-1.776-4.841-3.972L1.499,9.989
	C1.495,9.829,1.553,9.676,1.663,9.56c0.11-0.116,0.258-0.182,0.496-0.185h4.06v2.275c0,0.414,0.336,0.75,0.75,0.75
	c0.414,0,0.75-0.336,0.75-0.75L7.718,9.375l10.062-0.001v2.292c0,0.414,0.337,0.75,0.75,0.75c0.414,0,0.75-0.336,0.75-0.75V9.374
	h4.111c0.33,0,0.598,0.258,0.609,0.591L23.131,24.95z"/>
</svg>
