<?xml version="1.0" encoding="utf-8"?>
<!-- Generator: Adobe Illustrator 16.0.0, SVG Export Plug-In . SVG Version: 6.00 Build 0)  -->
<!DOCTYPE svg PUBLIC "-//W3C//DTD SVG 1.1//EN" "http://www.w3.org/Graphics/SVG/1.1/DTD/svg11.dtd">
<svg version="1.1" id="Layer_1" xmlns="http://www.w3.org/2000/svg" xmlns:xlink="http://www.w3.org/1999/xlink" x="0px" y="0px"
	 width="28.143px" height="28.023px" viewBox="0 0 28.143 28.023" enable-background="new 0 0 28.143 28.023" xml:space="preserve">
<path fill="#3D435F" d="M27.596,23.735c-0.736-4.061-3.259-5.524-7.662-6.809l-3.07-0.873c0.933-0.453,1.81-1.095,2.522-1.877
	c1.443-1.524,2.211-3.518,2.416-6.309c0.104-4.464-2.78-7.699-7.043-7.868h-1.402C9.124,0.17,6.239,3.405,6.345,7.906
	c0.203,2.753,0.971,4.746,2.405,6.262c0.719,0.787,1.599,1.432,2.533,1.887l-3.077,0.875c-4.398,1.281-6.921,2.746-7.66,6.823
	L0.01,27.158c-0.064,0.409,0.215,0.793,0.624,0.856c0.407,0.062,0.793-0.215,0.857-0.625l0.532-3.388
	c0.604-3.33,2.61-4.471,6.597-5.632l5.45-1.552l5.446,1.55c3.991,1.163,5.997,2.304,6.598,5.616l0.536,3.404
	c0.06,0.37,0.378,0.634,0.74,0.634c0.039,0,0.078-0.003,0.117-0.009c0.409-0.063,0.688-0.447,0.625-0.856L27.596,23.735z
	 M9.848,13.145c-1.209-1.277-1.829-2.928-2.005-5.312C7.758,4.18,9.998,1.635,13.386,1.5h1.344c3.418,0.136,5.657,2.681,5.574,6.295
	c-0.179,2.423-0.798,4.073-2.017,5.36c-1.126,1.231-2.703,2.037-4.144,2.125l-0.072-0.021L14,15.28
	C12.561,15.193,10.982,14.387,9.848,13.145z"/>
</svg>
