<?xml version="1.0" encoding="utf-8"?>
<!-- Generator: Adobe Illustrator 16.0.0, SVG Export Plug-In . SVG Version: 6.00 Build 0)  -->
<!DOCTYPE svg PUBLIC "-//W3C//DTD SVG 1.1//EN" "http://www.w3.org/Graphics/SVG/1.1/DTD/svg11.dtd">
<svg version="1.1" id="Layer_1" xmlns="http://www.w3.org/2000/svg" xmlns:xlink="http://www.w3.org/1999/xlink" x="0px" y="0px"
	 width="26.441px" height="27.211px" viewBox="0 0 26.441 27.211" enable-background="new 0 0 26.441 27.211" xml:space="preserve">
<path fill="#3D435F" d="M26.222,25.931l-8.589-8.589c1.771-1.844,2.867-4.34,2.867-7.093C20.5,4.598,15.901,0,10.25,0
	C4.598,0,0,4.598,0,10.25C0,15.902,4.598,20.5,10.25,20.5c2.36,0,4.53-0.81,6.265-2.155l8.646,8.646
	c0.146,0.146,0.338,0.22,0.53,0.22s0.384-0.073,0.53-0.22C26.515,26.699,26.515,26.224,26.222,25.931z M1.5,10.25
	c0-4.825,3.925-8.75,8.75-8.75S19,5.425,19,10.25C19,15.075,15.074,19,10.25,19S1.5,15.075,1.5,10.25z"/>
</svg>
