<?xml version="1.0" encoding="utf-8"?>
<!-- Generator: Adobe Illustrator 16.0.0, SVG Export Plug-In . SVG Version: 6.00 Build 0)  -->
<!DOCTYPE svg PUBLIC "-//W3C//DTD SVG 1.1//EN" "http://www.w3.org/Graphics/SVG/1.1/DTD/svg11.dtd">
<svg version="1.1" id="_LOGO" xmlns="http://www.w3.org/2000/svg" xmlns:xlink="http://www.w3.org/1999/xlink" x="0px" y="0px"
	 width="111px" height="60px" viewBox="0 0 76.625 41.562" enable-background="new 0 0 76.625 41.562" xml:space="preserve">
<metadata><?xpacket begin="﻿" id="W5M0MpCehiHzreSzNTczkc9d"?>
<x:xmpmeta xmlns:x="adobe:ns:meta/" x:xmptk="Adobe XMP Core 5.3-c011 66.145661, 2012/02/06-14:56:27        ">
   <rdf:RDF xmlns:rdf="http://www.w3.org/1999/02/22-rdf-syntax-ns#">
      <rdf:Description rdf:about=""
            xmlns:xmp="http://ns.adobe.com/xap/1.0/"
            xmlns:xmpGImg="http://ns.adobe.com/xap/1.0/g/img/">
         <xmp:CreatorTool>Adobe Photoshop CC 2017 (Macintosh)</xmp:CreatorTool>
         <xmp:Thumbnails>
            <rdf:Alt>
               <rdf:li rdf:parseType="Resource">
                  <xmpGImg:width>256</xmpGImg:width>
                  <xmpGImg:height>140</xmpGImg:height>
                  <xmpGImg:format>JPEG</xmpGImg:format>
                  <xmpGImg:image>/9j/4AAQSkZJRgABAgEASABIAAD/7QAsUGhvdG9zaG9wIDMuMAA4QklNA+0AAAAAABAASAAAAAEA&#xA;AQBIAAAAAQAB/+4ADkFkb2JlAGTAAAAAAf/bAIQABgQEBAUEBgUFBgkGBQYJCwgGBggLDAoKCwoK&#xA;DBAMDAwMDAwQDA4PEA8ODBMTFBQTExwbGxscHx8fHx8fHx8fHwEHBwcNDA0YEBAYGhURFRofHx8f&#xA;Hx8fHx8fHx8fHx8fHx8fHx8fHx8fHx8fHx8fHx8fHx8fHx8fHx8fHx8fHx8f/8AAEQgAjAEAAwER&#xA;AAIRAQMRAf/EAaIAAAAHAQEBAQEAAAAAAAAAAAQFAwIGAQAHCAkKCwEAAgIDAQEBAQEAAAAAAAAA&#xA;AQACAwQFBgcICQoLEAACAQMDAgQCBgcDBAIGAnMBAgMRBAAFIRIxQVEGE2EicYEUMpGhBxWxQiPB&#xA;UtHhMxZi8CRygvElQzRTkqKyY3PCNUQnk6OzNhdUZHTD0uIIJoMJChgZhJRFRqS0VtNVKBry4/PE&#xA;1OT0ZXWFlaW1xdXl9WZ2hpamtsbW5vY3R1dnd4eXp7fH1+f3OEhYaHiImKi4yNjo+Ck5SVlpeYmZ&#xA;qbnJ2en5KjpKWmp6ipqqusra6voRAAICAQIDBQUEBQYECAMDbQEAAhEDBCESMUEFURNhIgZxgZEy&#xA;obHwFMHR4SNCFVJicvEzJDRDghaSUyWiY7LCB3PSNeJEgxdUkwgJChgZJjZFGidkdFU38qOzwygp&#xA;0+PzhJSktMTU5PRldYWVpbXF1eX1RlZmdoaWprbG1ub2R1dnd4eXp7fH1+f3OEhYaHiImKi4yNjo&#xA;+DlJWWl5iZmpucnZ6fkqOkpaanqKmqq6ytrq+v/aAAwDAQACEQMRAD8A9U4q7FXYq7FXYq7FXYq7&#xA;FXYq7FXYq7FXYq7FXYq7FXYq7FXYq7FXYq8x/NH87tL8pO+l6YiahrwHxoSfRt67j1StCzf5APzI&#xA;7248V79GJlTx6KT86fzIkaWF7y5smJ3V/qlkPYbxxsR9LZf6Isdyi/8AoW/8xuHPlY86cuHrtyr1&#xA;p9ilfpwePFeEoSWb86vy3dZZ3vLayUgDmwu7I1NADvJGpb6Gw+iS7h7D+V/526V5tdNL1NF07XyP&#xA;gjBPo3FBU+kTurf5DH5E70oyYjHfoyErenZUydirsVdirsVdirsVdirsVdirsVdirsVdirsVdirs&#xA;VdirsVdirsVdirsVdirsVdirBPzi8/N5P8qNLaMBq9+Tb6fUA8DSrzUP++16f5RHbLMUOIokaeR/&#xA;kp+U6eaZ38zeY1abSllb0IXY1upwau8h6lFbr/M3yNbsuStgwiH0pDBDBCkMEaxQxgLHGgCqqjYB&#xA;QNgBmK2L8VWTwQXELwTxrLDKpSSJwGVlOxDKdiDir5p/On8qB5UuY/Mvl0PFpMkq+rChNbScmqMj&#xA;DcRsen8rbdxmXiyXsWuQp7B+T/n0+cPKaT3TA6tYkW+oAUHJgKpLQdPUX8a5RkhwlnE2znK0uxV2&#xA;KuxV2KuxV2KuxV2KuxV2KuxV2KuxV2KuxV2KuxV2KuxV2KuxV2KuxV2KvmP/AJyM1G51L8wbXSIq&#xA;stlbRRRRf8XXDcyfmwKD6My8IqNtcub6N8v6Na6LoljpNqAILGFIUptXgtCx92O598xSbNtiPwK7&#xA;FXYql3mPRLXXdBv9HugDDfQvCSf2Sw+Fx7q1GHvhiaNqXzr/AM43apPYefLvSZDxS+tZFePb++t2&#xA;DqfoXmPpzKzixbXHm+m8xGx2KuxV2KuxV2KuxV2KuxV2KuxV2KuxV2KuxV2KuxV2KuxV2KuxV2Ku&#xA;xV2KuxV8tfnixsPzgN7MP3QFlcLTukaqD+MZzLxfS1y5vqRHR0V0IZGAKsNwQdwcxGxvFXYq7FVs&#xA;kiRxtJIwVEBZ2PQACpOKvl38iueofm4b6MfAEvLlx4LICo/GUZl5dotceb6kzEbHYq7FXYq7FUv1&#xA;fzBoWjRrJq2oW1gj19M3MqRcqdePIjl9GERJ5LahpPnDyprEvo6XrFnezj/dMM8byUHfgDyp70wm&#xA;JHNFpvkUpdpfmTy7q8jx6VqtnqEkQDSJazxTMqk0BYRs1BhMSOa2jbi4t7aCS4uJUht4VMk00jBE&#xA;RFFWZmNAAB1JwKhtL1zRNXjeTStQttQjiIWR7WaOZVYioDGMtQ4SCOaobUPN/lPTbprTUdasLK6Q&#xA;Avb3F1DFIAwqKo7BhUYREnoi0N/ysHyF/wBTLpX/AEm2/wDzXjwS7lsJrpuraVqlubnTL2C+tgxQ&#xA;z20qTJyFCV5IWFRXpgIISt1TWdI0m3+s6pewWNvWgluJEiUnwBcip9sQCeSoLSvOvlHV7j6tpms2&#xA;d3cncQRTxtIfkgPI/RhMSOiLTnIpS2x8y+XNQvHsbDVbO7vYgxktYLiKSVQh4tyRGLChNDthMSFt&#xA;U1TXtC0n0v0rqNrp/rkiD61NHDzK05cPUZeVOQrTEAnkqKubq2tbeS5upUgtoVLzTSsERFUVLMzU&#xA;AA8TgVDaXrmi6tG8ulahbahHGeMj2s0cyqxFaMYy1DhII5qsl8x+XodTXSpdUtI9UcqEsGniW4JY&#xA;VUCItz3G42x4TzW0ZcXFvbW8txcSpDbwo0k00jBEREFWZmNAAAKknAqG0vXNE1eN5NK1C21COIhZ&#xA;HtZo5lViKgMYy1DhII5qjcCvD/8AnJjyhLdafY+aLZCxsR9Uv6CtIZGrE/yWRip/1hmRgl0YSDI/&#xA;yK/MC38xeV4tJuZR+mdIjWGVGPxSQL8MUq+NBRW9+vUZDLCjaYl6blTJ2KuxV5h+fH5gW/l7yxLo&#xA;9tIDrGsRtCiA/FHbtVZJTTpUfCvvv2y3DCzbGRSD/nGfyjLaaZfeZ7mMo1/S2sa7EwxtWRx7NIAP&#xA;9jk88uiIh7dmOzdirsVdirsVfJ3mZdPvvzj1ODz9e3Ftpy3UsZmhBJSAVNsqji5WMqV6Kev05mR+&#xA;n0tZ57s4svyS/LfW7u0ufKXmhnEMiSXUCzRTS+mrAtw4COSJ/AsDlZyyHMJ4Q94jQIiotSFAUFiW&#xA;NBtuzEk/M5js3xP5J80at5V16DXtPVmW2YJdJvwkik+1E57cgu3uK9sz5xBFNQL1H85/zag8x6da&#xA;eXfK0jXFtexJdalJGDzIp6i25A6cKcpPClOxynFjrcspFO/+cXP+ODrf/MVH/wAm8GfmFgyrzh+R&#xA;/lPzXr0+t6jd38V1OqK6W8kKxgRoEFA8MjdB45COUgUkxt4b+Uv5d6J5w8zanpepz3MNvZQNLE1s&#xA;0auWWVY/iLpIKUbwzIyTMRbEC30d5X8q6J5A8sXVrZTXEthbma9le4ZHkFEBehRIxSkfhmLKRkWY&#xA;FPAvLGha7+cnnO+1HV7x7fTbSjTcDUxRSFvSt4FIKivE/ER2JNTmRIiA2YDdP/zH/ICy0HQZdd8s&#xA;Xly0mmr691Bcupb04xVpInjSOjJTkQfop0MYZrNFJiz/APIzzve+afKDLqUhl1LTJfq007ElpUKh&#xA;o5GJ/aIqp8aV75XlhRTEvN9Yj/wN/wA5CW94P3Wn6pOsxPRfSv6xyk07JMWb6MtHqgjkUr/5yI1u&#xA;bVvPbadbhpINEtlSQL8QEklJZX26bOin5YcIoIlzZX5z/ML69+QOnzCWt/qhi025Nfj5W5JmY/64&#xA;h39nyEYetJOzOPyN8unRPy60/wBReNxqRa/m/wCe1PT/AOSSpleWVyTEbPEfz1+t/wDK2b1rPn9Z&#xA;jjtpIjFXmpjgV+S8d/h41zIxfSxlzen+X/zKi85flJ5kjumVddsNJvEv49h6g+rOFnUeD/tU6N7U&#xA;yow4ZDuZA2EB/wA4uf8AHB1v/mKj/wCTeHPzCIPbcx2ajfWNpf2c9leRLPa3KNFPC4qrIwowP0Yg&#xA;q+WPPvkXzH+WPmaHWtFmkXTTKW02/Xcxk1PoTdq8dt9nH0gZkJiYotZFPdfyu/NHTPO2mUPG21u2&#xA;UfXrGv0erFXcxk/Sp2PYnHyY+FmDbOMrSwf80fzR0zyTplBxudbuVP1Gxr9Hqy03EYP0sdh3Isx4&#xA;+JBNPD/IHkDzF+ZvmKfXtenl/Rfq8r6+bZpmH+6IOwoNttlH0DMicxAUGAFvqKzs7WytIbO0iWC1&#xA;t0WKCFBRURBRVA9hmGS2K2KuxV2KuxV2KvFdY/MT8lPN2t3emeZbIItq/o2eryI6eqF2NJIeMsYD&#xA;VoG+Gm5p0y8QnEbMLBeXfmDZ+R/Lus6fe+QNamnnBaWQo/IW7Jx9MxygIfi+LY1y6BJHqDE+T6r8&#xA;vXV7d6Bpl3fJ6d9cWkEt1HSnGV41Z1p7MTmHLm2h85f84/aBpvmCXzNpGpR+pZ3dlGjj9pT6lVdS&#xA;a0ZWoQfHMrMaotcQzPyl+TY8n+XvNOqao8d1qZs72Cwdd1S39Fh6gr0eUdfAbdzlcsvEQAkRpZ/z&#xA;i5/xwdb/AOYqP/k3hz8wsHtuY7N85/8AOOH/ACnuvf8AMJJ/1EJmVn+kMI830DrFgNR0m908twF5&#xA;by2/P+X1UKV+iuYwNFm+bfyf86Rfl75n1XQfM0bWcFy6xXEzBj6E0HIKSqgko4f7Q9j0zKyR4hYa&#xA;4mmffmv+c3lFfKV9pei3sep6hqsD2tIamOKKZOLu7UpXixAUb1yvHiN2WRkq/wDOOHlm90vyjc6l&#xA;eRmFtXmWS3RgQTBEvFHof5mZqeIoe+DPKysQl3/OTfl0z6JpnmCFf3lhMbadh19OfdGP+q6U/wBl&#xA;hwS3pEwkf5HeWH82t5t13WT6zanFJp5mbc+pdfvJ2HgV+DjTxyWWXDQCxFvMtH0nWtU17T/JEzsi&#xA;JqUkbwjpHLIUiuH/ANikH4ZcSALYvtGCGKCGOCFQkUShI0HQKooAPkMwG18/eZRX/nJmwB6eraf9&#xA;QwzJj/dsDzSb83vIuoeRNbm1rQC0GhazHNayIg+GI3MbLNbsOnB1JZPD/Yg5LHPiFHmiQpmH/OLn&#xA;/HB1v/mKj/5N5DPzCYPbcx2bsVQmq6Vp2radPp2owLc2VypSaFxUEH9RHUEbg4QaV8uee/InmT8s&#xA;PMkGs6NPL+jvV5adqK/aRv8AfE/atNt9nH0gZcJiYotZFPRf+hktH/wX9d+r/wDO0f3P6No3pepT&#xA;+/5/7678a8q/D/lZV4BvyTxMA8geQPMX5m+Yp9e16eX9F+ryvr5tmmYf7og7Cg222UfQMtnMQFBA&#xA;FvqDTtOsdMsYLCwgS2s7ZBHBBGKKqjMQm2xEYFdirsVdirsVdirDfNX5ReQ/M1y13f6f6V89TJd2&#xA;rGGRie78fgc+7KTlkchCDEIDQPyJ/LvRr1LxbOS+niPKL67J6qKR0PpgIh/2QOE5ZFHCHoOVMmKe&#xA;TPyx8reT7q5udFjmSW6QRymWQyDip5CgI8cnLIZc0AUyS/soL6xubG4BMF1E8MoU0PCRSrUPyORB&#xA;SknkzyH5f8n2tzbaKkqRXTiSUSuZDyUcRQn2wymZc0AUyLIpYp5S/LHyt5V1O51LSI5lurtDHMZJ&#xA;C68WcOaAjbcZOWQnmgBleQSxfzf+Wnk7zayy6xYhrtBxS8hYxTAeBZftDwDA0ycZmPJBFpFo35Bf&#xA;lxpl2t01pLfuhDIl5J6kYI8Y1CK3yYEZI5pFHCHoqqFAVRQDYAdAMqZJd5h0DTfMGjXOj6khksrt&#xA;QsyqeLfCwdSD2IZQcMTRtSFDyn5S0XyrpA0rSI2jtRI0p5tzZnelSzHr0AwykSbKAEusvy08qWfm&#xA;+XzbBA66xM0js3MmMPKvB2CdiwJ+/CZmqWmU5BLFrv8ALbyxd+cIvNsyTHWIWRkcSER1jTgvwfLJ&#xA;iZqkUneuaJpmuaTc6VqcInsrpOEsZ2PiGU9mU7g9jkQaNpSvyZ5D8v8Ak+1ubbRUlSK6cSSiVzIe&#xA;SjiKE+2GUzLmgCmRZFLsVdirzz85vPflvy/5bn03UYItSvtSiKW+lvupU7erLShVFPQihJHw+Itx&#xA;QJLGRfKx0fVV0tdXNpL+jGlMC3hU+kZQORTl0rTMuxdNb6r/ACd8/wDl3zJ5dg0+xgi02/02JUn0&#xA;uPZVUbepFXdkY9a7g9exOHkgQWyJeg5WydirsVdirsVdirsVYL+Yf5veXPJU0NndRy3uozL6n1SD&#xA;iCkdaBpGY/Dy3oNzlkMZkgypG/l/+Zvl7zvb3D6aJYLq04/WbScAOoevFlKllZTQ9DXxHTBPGYqD&#xA;bLcgl5r5x/Pvyd5c1GbTESfU763bhcC2CCJHH2kaRiKsO/EHw65bHCSxMkN5b/5yJ8k6veR2d3Fc&#xA;6XNMwSN5lWSEsTRRzjLMK+6098MsJCiTMfPnnfT/ACboi6vfQS3EDTJbiODjz5OGIPxFRT4crhDi&#xA;NJJp55/0M/5R/wCrVqH3Q/8AVTLfAKONkHkf87tA8368mjWNhd287xvKJJvT4UjFSPhdjkZ4jEWo&#xA;lbK/NfnLy95V076/rV0IImJWGMDlLKw/ZjQbt+od8hGJPJJLzMf85QeVfrPE6TfC2r/e1h508eHO&#xA;n/DZb4BRxvTfKvm/QPNOmDUdFuRPBXjKhHGSN6V4SId1P+YyqUSOaQUs/ML8xtL8j2dpdahbT3KX&#xA;kjRItvwqCq8qnmy4YQ4lJpg6/wDOT/lCo5aVqAHcgQE0/wCRgyzwCjjek+UPOWhebNJXU9HmLw1K&#xA;SwuAssTj9mRQTQ9+u+VSiQd0g2kv5h/mro/kaaxi1C0uLk3yyNGbfhRRGVB5c2X+bJQxmSk0w/8A&#xA;6Gf8o/8AVq1D7of+qmT8Ao43ofkPzvp/nLRG1exglt4Fme3Mc/HnyQKSfhLCnxZVOHCaSDbIsil2&#xA;KuxV2KsH/NH80dM8k6ZQcbnW7lT9Rsa/R6stNxGD9LHYdyLMePiQTTw/yB5A8xfmb5in17Xp5f0X&#xA;6vK+vm2aZh/uiDsKDbbZR9AzInMQFBgBb6Vk8saBJoB8vNYxfob0vQ+pUogQdKd6135da79cxOI3&#xA;bZT5k89+RPMn5YeZINZ0aeX9Hery07UV+0jf74n7Vptvs4+kDLhMTFFrIp7t+V35o6Z520yh422t&#xA;2yj69Y1+j1Yq7mMn6VOx7E4+THwswbZxlaXYq7FXYq7FXYq+aPzX802mg/nJD5h0e4g1G7s0Rbq1&#xA;cMyRzIhiaMt0rwNfhNVb3GZWONxotZO7JPyQ/Qlgupeedd1zT7S516WWJbZpo7dI29T1ZVYSFaMS&#xA;QVUdFp47Ry2dgOSYvc1YMAymoO4I6EZjs3y5c6Vrn5ZefL7VtS8vDW9HkeYW88684mjkfmkgl4yL&#xA;HKAKNyFevbfMuxMVbXyLOfK/5gfkz5n8w6dLdaLHpGvQyq1lNLGiRtN0QepEQGIP2fUXY9N8rlCY&#xA;HPZIIexX2naffw+hfW0V3ACGEU6LInIdDxcEV3ykGmb5x/5yC0rS7DzvokNjZwWkMlrG0kUEaRqx&#xA;Nw4qVUAHbMnCbBa5Poay8u+X7GcXFjplpazgFRLDBHG9D1HJVBzGMi2U+evzIjm84/nnB5bup2j0&#xA;+CSCzjAIBWMxLNMVrtyYkgH5Zkw9MLazuXuL/lx5FbSDpH6DsxZFPToIlEnSnL1aepz/AMrlX3zH&#xA;4zd2zoPEfyqjuPKf54Xfle1naWxne6tJOR+0kMbzxMw2HNeFK+5zIybwtgNiyX/nKP8A44Oif8xU&#xA;n/JvI4OZTNL7D81Pyhh8jWGl6jpX1++t9Pgt7iH6pH8c6QqjESvT9oH4+vfCccrtbC//AJxb0/UE&#xA;TXtQYMthL6EKE/ZeWPmzU/1Fcf8ABYNQeSwQv/OU3+9/l7/jFc/8Sjw6fqs1O3/5yB8pxQRxt5Ni&#xA;YoqqW5w7kClf7nHwT3rxPoO2tLW1j9K1hjgjry4RKEWp70UDMa2arirsVdirB/zR/NHTPJOmUHG5&#xA;1u5U/UbGv0erLTcRg/Sx2HcizHj4kE08P8geQPMX5m+Yp9e16eX9F+ryvr5tmmYf7og7Cg222UfQ&#xA;MyJzEBQYAW+oNO06x0yxgsLCBLaztkEcEEYoqqMxCbbERgVCarpWnatp0+najAtzZXKlJoXFQQf1&#xA;EdQRuDhBpXy5578ieZPyw8yQazo08v6O9Xlp2or9pG/3xP2rTbfZx9IGXCYmKLWRT3b8rvzR0zzt&#xA;plDxttbtlH16xr9HqxV3MZP0qdj2Jx8mPhZg2zjK0uxVLdX8y+XtGVW1bUraw5fYFxKkZb/VDEE/&#xA;RhESeS2htM88eTtUuBbadrdldXLfZgjnjMjf6q15H6MJgR0Rad5FL5N0HWtQ/Lbzfqv+KdBGpT3k&#xA;csEpnonMSNV5InZHV0kGzbb169szCOIbFr5MeOjajfTXnmbTPL0yeWrSZZ5ICXkhSLkP3ZlIUuvZ&#xA;iOg65O+l7ofXvlvX217y5aazDZy2jXkXqx2lz8DA70qQD8LdVam43pmFIUabA8Vl/PH8xfKmuXlt&#xA;5w0MSQyys0EIrB6a7ALDMFdJUHjua/tZf4USNix4iGD+ZNQuvzP832o8teXk0+cqI5fQoSxLEme4&#xA;kRUVQo7kV9zsBZEcA3KDu+toUZIkRm5sqgM56kgUr9OYTY+df+cj/wDlPdB/5hI/+oh8ysH0lhLm&#xA;+jMxWbwj88PIPmS28ywefPLSSSzx+k92sCl5YpbcAJMEoeScFUNttTfY7ZGKYrhLCQ6oJv8AnKDU&#xA;TpHoLoaDWSnD6z6xMPqUpzEXDl1/Z5fTh8DfmvGj/wAi/wAv/MMmv3HnnzLHJHcTCRrITjjLLLcV&#xA;9Wdl2KrxYhdt6+FKjLMVQWI6oj/nKP8A44Oif8xUn/JvHBzKzRF5+Uega/8AlFpculadBbeYG0y0&#xA;vIbqJAsk031dWdJGFOXq1PX9qhwDIRLfknh2a/5xy87C70ibylenhfaXyktAwoz27N8akfzRyN9x&#xA;HhjmjvaxKQ/85Tf73+Xv+MVz/wASjyWn6omi7b/nKGwht4oj5elPpoqV+srvxFP994PA8143qP5d&#xA;eeYvOnl9tYis2slWd7f0WcSGqKrcuQVf5/DKpw4TTIG2UZBLsVYP+aP5o6Z5J0yg43Ot3Kn6jY1+&#xA;j1ZabiMH6WOw7kWY8fEgmnh/kDyB5i/M3zFPr2vTy/ov1eV9fNs0zD/dEHYUG22yj6BmROYgKDAC&#xA;31Bp2nWOmWMFhYQJbWdsgjggjFFVRmITbYiMCuxV2KoTVdK07VtOn07UYFubK5UpNC4qCD+ojqCN&#xA;wcINK+XPPfkTzJ+WHmSDWdGnl/R3q8tO1FftI3++J+1abb7OPpAy4TExRayKe7fld+aOmedtMoeN&#xA;trdso+vWNfo9WKu5jJ+lTsexOPkx8LMG0i/OP844PK8D6LorrL5hlWkkgoy2isNmYdDIR9le3U9g&#xA;ZYsV7nkiUnlfk38mvOfnoHXdTvDZWl2eYv7vlNPPX9tIyVLL7swr2rl0sojsxEbTbzJ/zjP5i0+y&#xA;a50XUo9XljHJrVojbStTtHV5VY/NhkY5weamKZ/kh+beqJqsXlDzLK8olYw6ddTk+rFMNhbyFtyG&#xA;pRa7hvh6HYZce1hMS99lhhlXjKiyKDUBgGFfpzGZrmjRkMbKDGRxKEbEdKUxVsCmw6YqtlhilThK&#xA;iyIeqsAw+44qtgtre3jEdvEkMY6JGoVfDoKYqqYq7FXYq7FVH6jZev8AWPq8f1j/AH9wXn4/apXG&#xA;1VsVdirsVdirsVdirsVdirDvzQ/MSz8k6B9bKrPqd0THp1oxoGcD4nem/BK1NPYd65PHDiKCaeD/&#xA;AJf+QfMP5neYrjXtenkOmCWt/enZpXFD6EPYUFBtso+gZkzmICgwAt9Q6dp1jpljBYWECW1nbII4&#xA;IIxRVUZiE22IjArsVdirsVdiqE1XStO1bTp9O1GBbmyuVKTQuKgg/qI6gjcHCDSvknzvos/5c+fG&#xA;i0DVuUtvSa2mib99CJK/upxTjy49R0ZTUjemZkDxDdqOxTv8kvI2k+cvMV1qGvXi3JsmE8mnSMWm&#xA;uXc1MkhP2ow32t9z126xyzMRsmIt9SoiIioihUUBVVRQADYAAZiNjeKvlb897WLRPzTa+06kM8sd&#xA;vfnjsBOCRyFO5MYY+5zMxbxa5c31TmG2OxV2KuxV2KuxV2KuxV2KuxV2KuxV2KuxV2KuxV2KuxV8&#xA;p+fLu/8AzE/N79EWj/uFuP0bZHqqRQsfWlp33Dv8szIDhjbWdy+n9E0bT9F0m10rTohDZ2kYjiQd&#xA;aDqWPdmO5Pc5iE2bbEbgV2KuxV2KuxV2KvKvzj/OODyvA+i6K6y+YZVpJIKMtorDZmHQyEfZXt1P&#xA;YG7Fivc8mMpMA/KT8nLjzTKfMvmsStpczNJDDIzCW8djUyO9eYSu9a1Y+3WzJlrYMRFJfPfkTzJ+&#xA;WHmSDWdGnl/R3q8tO1FftI3++J+1abb7OPpAlCYmKKkU9q/L386PLHmfT4o7+5h0zW1HG4tJnEaO&#xA;w/ahZyAwbrxryH4mieIhkJJ/5k/MfyZ5esnur/VIGZRWO1gkSWeQ9gkamv0nbxORjAlJL5z0aHVf&#xA;zV/NUXk8NLSSZJ7xeqQ2UJAEZPiygL7sa5kmoRYcy+scw2x2KuxV2KuxV2KuxV2KuxV2KuxV2Kux&#xA;V2KuxV2KuxVTupTDbSyqKmNGYA9KqK4q+Yv+cb7Zbv8AMae5mPKW2sJ7hGO55tJHET90pzLz/S1x&#xA;5vqHMRsdirsVdirsVdiryr84/wA44PK8D6LorrL5hlWkkgoy2isNmYdDIR9le3U9gbsWK9zyYykw&#xA;L8n/AMn7rzJdL5p80q76Y7maCCYkyXkhNTJITv6df+D+XWzJkrYMYxfSKIiIqIoVFAVVUUAA2AAG&#xA;YrYh9T0zT9UsJtP1G3S6srheE0Eg5Kw/qOoPY4QaV4f5l/5xhSS5eby5qqwQuSVs71WYJU9FmSpI&#xA;8KpX3OXxz97AwS7SP+cXtceZf0xrFrBAPtC0WSZyPAGRYQPnvkjnHReB7b5O8laB5R0sado8BjRi&#xA;Gnnc8pZnApykbavsBQDsMx5SMubICk9yKXYq7FXYq7FXYq7FXYq7FXYq7FXYq7FXYq7FXYq7FWpE&#xA;SRGRxVHBVh4g7HFXyt+T10fKv5vDS70+mZJLjSZWO37zlSMf7KWNQPnmZk3jbXHYvqrMNsdirsVd&#xA;irsVeVfnH+ccHleB9F0V1l8wyrSSQUZbRWGzMOhkI+yvbqewN2LFe55MZSYF+T/5P3XmS6XzT5pV&#xA;30x3M0EExJkvJCamSQnf06/8H8utmTJWwYxi+kURERURQqKAqqooABsAAMxWxvFXYq7FXYq7FXYq&#xA;7FXYq7FXYq7FXYq7FXYq7FXYq7FXYq7FXYq7FXYq7FXzj/zkP5Iu9M16LzjpqstteMgu5I9jDdRg&#xA;BHqOnMKN/wCYe4zKwzsUwkHqP5T/AJn2PnLRkinkWLX7RAt9a1AL029aMd1bvT7J28CacmPhPkyB&#xA;tnuVpdirsVeUfnD+c1t5Zgl0XQ5Fm8wyDjLIKMloCPtN2Mn8q9up8DdjxXueTGUmCfk/+T915kul&#xA;80+aVd9MdzNBBMSZLyQmpkkJ39Ov/B/LrZkyVsGMYvpFEREVEUKigKqqKAAbAADMVsbxV2KuxV2K&#xA;uxV2KuxV2KuxV2KuxV2KuxV2KuxV2KuxV2KuxV2KuxV2KuxV2KofUdOsdTsZ7C/gS5s7lDHPBIKq&#xA;ynCDSvmrzz+TPm3ydqZ1zym9xdafCxkhltifrdt7MqfE6gftL2+0BmVDKJbFrMaR3lr/AJyY1+yj&#xA;W38wadHqXD4Tcwt9Xm27utGRj8guCWAdEiTJpP8AnKHyyIax6PetNT7DNEq1/wBYMx/4XIeAV42F&#xA;+Zv+cgvOvmH/AHHaBajSkuP3ai3LT3b8tuKvxWlf8hOXvlkcIHNBknH5Y/kFf3N3HrfnOMxwBvVj&#xA;0pzWWVq15XH8q+K9T3p3jkzdAkRfQiIiIqIoVFAVVUUAA2AAGYzNvFXYq7FXYq7FXYq7FXYq7FXY&#xA;q7FXYq7FXYq7FXYq7FXYq7FXYq7FXYq7FXYq7FXYq7FWBed/+VM+u/8Air9F/Xa/vOXH61/svR/f&#xA;fflkOPoxNMDi/wChVfVHHjyrty/S3H6eXw5Z+8/FI2eneSf+VZ8D/hD9G8+P7z6n6fr8f+LP920/&#xA;1sqnxdWQpleQS7FXYq7FXYq7FXYq7FXYq//Z</xmpGImg:image>
               </rdf:li>
            </rdf:Alt>
         </xmp:Thumbnails>
      </rdf:Description>
      <rdf:Description rdf:about=""
            xmlns:xmpTPg="http://ns.adobe.com/xap/1.0/t/pg/"
            xmlns:stDim="http://ns.adobe.com/xap/1.0/sType/Dimensions#"
            xmlns:xmpG="http://ns.adobe.com/xap/1.0/g/">
         <xmpTPg:MaxPageSize rdf:parseType="Resource">
            <stDim:w>27.031597</stDim:w>
            <stDim:h>14.662326</stDim:h>
            <stDim:unit>Millimeters</stDim:unit>
         </xmpTPg:MaxPageSize>
         <xmpTPg:NPages>1</xmpTPg:NPages>
         <xmpTPg:HasVisibleTransparency>False</xmpTPg:HasVisibleTransparency>
         <xmpTPg:HasVisibleOverprint>False</xmpTPg:HasVisibleOverprint>
         <xmpTPg:PlateNames>
            <rdf:Seq>
               <rdf:li>Cyan</rdf:li>
               <rdf:li>Magenta</rdf:li>
               <rdf:li>Yellow</rdf:li>
               <rdf:li>Black</rdf:li>
            </rdf:Seq>
         </xmpTPg:PlateNames>
         <xmpTPg:SwatchGroups>
            <rdf:Seq>
               <rdf:li rdf:parseType="Resource">
                  <xmpG:groupName>Default Swatch Group</xmpG:groupName>
                  <xmpG:groupType>0</xmpG:groupType>
               </rdf:li>
            </rdf:Seq>
         </xmpTPg:SwatchGroups>
      </rdf:Description>
      <rdf:Description rdf:about=""
            xmlns:dc="http://purl.org/dc/elements/1.1/">
         <dc:format>image/svg+xml</dc:format>
      </rdf:Description>
   </rdf:RDF>
</x:xmpmeta>
                                                                                                    
                                                                                                    
                                                                                                    
                                                                                                    
                                                                                                    
                                                                                                    
                                                                                                    
                                                                                                    
                                                                                                    
                                                                                                    
                                                                                                    
                                                                                                    
                                                                                                    
                                                                                                    
                                                                                                    
                                                                                                    
                                                                                                    
                                                                                                    
                                                                                                    
                                                                                                    
                           
<?xpacket end="w"?>
	</metadata>
<g>
	<g>
		<g>
			<path fill="#ffffff" d="M2.224,17.625c-0.37-0.121-0.678-0.261-0.924-0.422c-0.247-0.161-0.426-0.302-0.539-0.426l0.788-0.86
				c0.562,0.499,1.173,0.748,1.832,0.748c0.322,0,0.581-0.051,0.776-0.152c0.195-0.103,0.293-0.246,0.293-0.435
				c0-0.182-0.08-0.321-0.237-0.418c-0.158-0.096-0.369-0.177-0.631-0.241l-0.329-0.071c-0.295-0.069-0.52-0.125-0.675-0.165
				c-0.155-0.04-0.324-0.102-0.506-0.182c-0.375-0.16-0.641-0.367-0.799-0.619c-0.158-0.252-0.237-0.52-0.237-0.803
				c0-0.333,0.103-0.619,0.309-0.859c0.207-0.241,0.481-0.423,0.825-0.542c0.342-0.121,0.715-0.182,1.117-0.182
				c0.471,0,0.905,0.068,1.302,0.206c0.396,0.136,0.723,0.31,0.98,0.519l-0.603,0.883c-0.188-0.128-0.422-0.246-0.703-0.354
				c-0.281-0.106-0.59-0.161-0.928-0.161c-0.692,0-1.037,0.18-1.037,0.539c0,0.167,0.076,0.297,0.229,0.395
				c0.153,0.096,0.414,0.185,0.784,0.265c0.477,0.104,0.871,0.208,1.181,0.318c0.311,0.109,0.588,0.288,0.832,0.534
				c0.243,0.247,0.366,0.578,0.366,0.997c0,0.375-0.113,0.688-0.337,0.939c-0.226,0.252-0.51,0.438-0.856,0.555
				c-0.346,0.118-0.701,0.178-1.065,0.178C2.995,17.806,2.593,17.746,2.224,17.625z"/>
			<path fill="#ffffff" d="M13.49,12.084v5.617h-1.197V14.1l-1.624,2.25l-1.615-2.259V17.7H7.857v-5.617h1.125l1.687,2.451
				l1.672-2.451L13.49,12.084L13.49,12.084z"/>
			<path fill="#ffffff" d="M17.292,13.161h-1.76v-1.077h4.741v1.077h-1.752v4.541h-1.229V13.161z"/>
			<path fill="#ffffff" d="M23.102,17.416c-0.45-0.26-0.8-0.61-1.048-1.053c-0.25-0.442-0.375-0.931-0.375-1.466
				c0-0.531,0.125-1.019,0.375-1.463c0.249-0.445,0.599-0.797,1.048-1.058c0.45-0.259,0.965-0.39,1.543-0.39
				c0.584,0,1.101,0.131,1.551,0.39c0.45,0.261,0.8,0.611,1.049,1.054c0.249,0.441,0.374,0.931,0.374,1.467
				s-0.125,1.023-0.374,1.466s-0.601,0.793-1.053,1.053c-0.452,0.26-0.968,0.391-1.547,0.391
				C24.067,17.806,23.552,17.676,23.102,17.416z M25.521,16.444c0.257-0.153,0.458-0.365,0.603-0.635
				c0.145-0.271,0.218-0.575,0.218-0.912c0-0.343-0.072-0.648-0.213-0.917c-0.142-0.269-0.342-0.478-0.599-0.627
				s-0.551-0.226-0.884-0.226c-0.327,0-0.619,0.076-0.876,0.226c-0.257,0.149-0.457,0.358-0.599,0.627s-0.213,0.573-0.213,0.917
				c0,0.337,0.073,0.641,0.218,0.912c0.145,0.27,0.345,0.481,0.603,0.635c0.257,0.153,0.546,0.229,0.868,0.229
				C24.971,16.673,25.264,16.597,25.521,16.444z"/>
			<path fill="#ffffff" d="M29.089,12.084h1.286l1.061,3.592l1.117-3.592h0.956l1.174,3.584l1.012-3.584h1.277l-1.815,5.617h-0.965
				l-1.166-3.632l-1.156,3.632h-0.965L29.089,12.084z"/>
			<path fill="#ffffff" d="M38.98,12.084h1.118l2.667,3.561l0.01-3.561h1.197v5.617h-1.117l-2.677-3.592v3.592H38.98V12.084z"/>
		</g>
	</g>
	<g>
		<path fill="#ffffff" d="M1.756,26.277c-0.302-0.125-0.544-0.306-0.724-0.542c-0.181-0.236-0.271-0.52-0.271-0.847
			c0-0.261,0.094-0.531,0.282-0.812s0.487-0.531,0.896-0.748c-0.159-0.175-0.285-0.349-0.375-0.521
			c-0.09-0.172-0.134-0.402-0.134-0.688c0-0.186,0.054-0.386,0.163-0.601s0.28-0.4,0.513-0.559c0.234-0.155,0.528-0.233,0.884-0.233
			c0.212,0,0.434,0.044,0.665,0.131s0.424,0.225,0.581,0.41c0.156,0.186,0.235,0.417,0.235,0.692c0,0.36-0.099,0.652-0.295,0.875
			c-0.196,0.224-0.446,0.417-0.748,0.581c0.334,0.324,0.636,0.601,0.908,0.828c0.063-0.112,0.108-0.257,0.135-0.438H5.49
			c-0.01,0.132-0.042,0.305-0.095,0.517c-0.053,0.212-0.143,0.427-0.271,0.646l0.939,0.852l-0.661,0.692L4.574,25.74
			c-0.128,0.191-0.38,0.359-0.756,0.505c-0.377,0.146-0.732,0.219-1.067,0.219C2.39,26.464,2.058,26.401,1.756,26.277z
			 M3.746,24.976l-1.099-0.995c-0.201,0.095-0.364,0.203-0.489,0.322c-0.125,0.118-0.187,0.274-0.187,0.466
			c0,0.195,0.074,0.348,0.223,0.454c0.149,0.105,0.334,0.158,0.557,0.158C3.159,25.381,3.491,25.246,3.746,24.976z M3.323,22.543
			c0.106-0.113,0.16-0.256,0.16-0.426c0-0.147-0.049-0.265-0.147-0.35c-0.099-0.085-0.222-0.128-0.37-0.128
			c-0.111,0-0.222,0.038-0.331,0.111c-0.109,0.074-0.177,0.188-0.203,0.342c-0.005,0.021-0.008,0.051-0.008,0.088
			c0,0.212,0.132,0.445,0.398,0.7C3.051,22.771,3.218,22.658,3.323,22.543z"/>
		<path fill="#ffffff" d="M9.103,26.316c-0.367-0.119-0.672-0.259-0.916-0.418c-0.244-0.159-0.422-0.299-0.534-0.421l0.781-0.853
			c0.557,0.494,1.161,0.741,1.814,0.741c0.318,0,0.574-0.051,0.768-0.152c0.193-0.101,0.291-0.242,0.291-0.43
			c0-0.18-0.078-0.318-0.234-0.414c-0.157-0.095-0.365-0.175-0.625-0.239l-0.327-0.07c-0.292-0.069-0.515-0.124-0.669-0.163
			c-0.153-0.04-0.321-0.101-0.501-0.18c-0.372-0.158-0.636-0.362-0.792-0.612c-0.157-0.25-0.235-0.516-0.235-0.796
			c0-0.329,0.102-0.613,0.306-0.853c0.204-0.239,0.477-0.418,0.817-0.538c0.339-0.119,0.708-0.179,1.106-0.179
			c0.467,0,0.896,0.067,1.29,0.203c0.392,0.136,0.716,0.307,0.971,0.514l-0.597,0.875c-0.186-0.127-0.418-0.244-0.697-0.35
			c-0.279-0.106-0.585-0.159-0.919-0.159c-0.685,0-1.027,0.178-1.027,0.533c0,0.165,0.076,0.294,0.227,0.39s0.41,0.184,0.776,0.263
			c0.472,0.102,0.862,0.206,1.169,0.314c0.308,0.108,0.583,0.286,0.824,0.529c0.242,0.244,0.362,0.572,0.362,0.986
			c0,0.372-0.112,0.683-0.334,0.933c-0.223,0.25-0.506,0.433-0.848,0.549c-0.342,0.117-0.693,0.175-1.054,0.175
			C9.867,26.495,9.469,26.436,9.103,26.316z"/>
		<path fill="#ffffff" d="M15.829,21.895h-1.743v-1.066h4.696v1.066h-1.735v4.498h-1.218V21.895z"/>
		<path fill="#ffffff" d="M21.505,26.109c-0.446-0.257-0.792-0.604-1.039-1.042c-0.247-0.438-0.37-0.922-0.37-1.453
			c0-0.526,0.123-1.008,0.37-1.449c0.246-0.439,0.593-0.79,1.039-1.046c0.446-0.258,0.955-0.387,1.528-0.387
			c0.578,0,1.091,0.129,1.536,0.387c0.446,0.257,0.792,0.604,1.039,1.042c0.247,0.438,0.37,0.922,0.37,1.453
			s-0.123,1.015-0.37,1.453c-0.247,0.438-0.595,0.785-1.043,1.042c-0.449,0.258-0.959,0.386-1.532,0.386
			C22.46,26.495,21.951,26.367,21.505,26.109z M23.901,25.146c0.255-0.151,0.454-0.361,0.597-0.628
			c0.143-0.27,0.214-0.569,0.214-0.904c0-0.339-0.07-0.642-0.21-0.908c-0.141-0.265-0.338-0.472-0.593-0.621
			c-0.255-0.148-0.546-0.223-0.875-0.223c-0.324,0-0.613,0.075-0.868,0.223c-0.255,0.148-0.452,0.355-0.593,0.621
			c-0.141,0.267-0.211,0.568-0.211,0.908c0,0.334,0.072,0.635,0.215,0.904c0.143,0.267,0.342,0.478,0.597,0.628
			s0.541,0.227,0.86,0.227C23.358,25.374,23.646,25.297,23.901,25.146z"/>
		<path fill="#ffffff" d="M27.953,20.828h2.826c0.382,0,0.705,0.086,0.967,0.259c0.262,0.172,0.457,0.396,0.585,0.668
			c0.127,0.273,0.191,0.56,0.191,0.856c0,0.34-0.077,0.659-0.23,0.959c-0.154,0.3-0.382,0.524-0.685,0.673l1.218,2.149h-1.33
			l-1.139-1.976H29.17v1.976h-1.217V20.828z M30.492,23.375c0.26,0,0.471-0.062,0.633-0.187c0.162-0.125,0.243-0.314,0.243-0.569
			s-0.079-0.443-0.234-0.564c-0.157-0.122-0.357-0.185-0.602-0.185h-1.361v1.504L30.492,23.375L30.492,23.375z"/>
		<path fill="#ffffff" d="M34.767,20.828h4.313v1.042h-3.096v1.106h2.26v1.035h-2.26v1.337h3.135v1.043h-4.353V20.828z"/>
	</g>
	<path fill="#ffffff" d="M51.021,41.058c-2.156,0-4.184-0.838-5.705-2.359s-2.359-3.548-2.359-5.706
		c0-2.157,0.838-4.184,2.359-5.706l9.545-9.544l-4.283-4.285c-1.424-1.422-2.209-3.313-2.209-5.327c0-2.013,0.785-3.904,2.209-5.327
		C51.999,1.382,53.89,0.6,55.904,0.6c2.016,0,3.908,0.781,5.328,2.203c1.422,1.421,2.205,3.312,2.205,5.326
		c0,2.016-0.783,3.907-2.205,5.328l-4.283,4.285l9.324,9.323l2.07-2.072c0.831-0.831,1.938-1.289,3.116-1.289
		c1.178,0,2.284,0.458,3.116,1.289c0.832,0.833,1.289,1.939,1.289,3.116s-0.457,2.284-1.289,3.115
		c-0.832,0.832-1.938,1.29-3.116,1.29c-1.179,0-2.285-0.458-3.116-1.289l-2.07-2.072l-9.547,9.545
		C55.205,40.22,53.179,41.058,51.021,41.058z M46.359,28.33c-2.569,2.571-2.569,6.754,0,9.324c1.246,1.245,2.901,1.931,4.662,1.931
		c1.762,0,3.416-0.686,4.661-1.931l9.546-9.545l-9.324-9.323L46.359,28.33z M69.387,30.182c0.555,0.553,1.291,0.857,2.073,0.857
		s1.519-0.305,2.071-0.857c0.555-0.555,0.859-1.29,0.859-2.072s-0.306-1.52-0.859-2.072c-0.555-0.554-1.291-0.857-2.071-0.857
		c-0.781,0-1.519,0.305-2.073,0.857l-2.07,2.072L69.387,30.182z M55.904,2.074c-1.619,0-3.142,0.629-4.285,1.772
		s-1.772,2.666-1.772,4.283c0,1.618,0.63,3.141,1.772,4.285l4.285,4.284l4.285-4.284c1.143-1.143,1.771-2.664,1.771-4.285
		s-0.63-3.142-1.771-4.283C59.046,2.703,57.525,2.074,55.904,2.074z"/>
</g>
</svg>
