<?xml version="1.0" encoding="utf-8"?>
<!-- Generator: Adobe Illustrator 16.0.0, SVG Export Plug-In . SVG Version: 6.00 Build 0)  -->
<!DOCTYPE svg PUBLIC "-//W3C//DTD SVG 1.1//EN" "http://www.w3.org/Graphics/SVG/1.1/DTD/svg11.dtd">
<svg version="1.1" id="Layer_1" xmlns="http://www.w3.org/2000/svg" xmlns:xlink="http://www.w3.org/1999/xlink" x="0px" y="0px"
	 width="39.686px" height="39.678px" viewBox="0 0 39.686 39.678" enable-background="new 0 0 39.686 39.678" xml:space="preserve">
<path fill="#3E435F" d="M19.843,0.145C8.966,0.145,0.149,8.963,0.149,19.84c0,10.876,8.817,19.693,19.694,19.693
	c10.875,0,19.694-8.817,19.694-19.693C39.537,8.963,30.719,0.145,19.843,0.145z M28.131,22.208
	c-0.137,0.136-0.314,0.204-0.494,0.204c-0.182,0-0.359-0.068-0.496-0.204l-6.982-6.984l-6.982,6.984
	c-0.274,0.272-0.718,0.272-0.991,0c-0.273-0.274-0.273-0.718,0-0.992l7.479-7.479c0.263-0.263,0.728-0.263,0.991,0l7.479,7.479
	C28.404,21.49,28.404,21.932,28.131,22.208z"/>
</svg>
