<?xml version="1.0" encoding="utf-8"?>
<!-- Generator: Adobe Illustrator 16.0.0, SVG Export Plug-In . SVG Version: 6.00 Build 0)  -->
<!DOCTYPE svg PUBLIC "-//W3C//DTD SVG 1.1//EN" "http://www.w3.org/Graphics/SVG/1.1/DTD/svg11.dtd">
<svg version="1.1" id="Layer_1" xmlns="http://www.w3.org/2000/svg" xmlns:xlink="http://www.w3.org/1999/xlink" x="0px" y="0px"
	 width="519.621px" height="35.32px" viewBox="0 0 519.621 35.32" enable-background="new 0 0 519.621 35.32" xml:space="preserve">
<g>
	<g>
		<path fill="#ffffff" d="M9.1,34.011c-2.222-0.728-4.072-1.571-5.555-2.538c-1.479-0.966-2.558-1.815-3.233-2.558l4.73-5.167
			c3.379,2.993,7.049,4.491,11.008,4.491c1.934,0,3.486-0.308,4.661-0.917c1.174-0.611,1.763-1.481,1.763-2.607
			c0-1.097-0.477-1.931-1.425-2.512c-0.949-0.578-2.214-1.062-3.791-1.449l-1.979-0.435c-1.771-0.418-3.122-0.749-4.056-0.989
			c-0.935-0.24-1.949-0.604-3.042-1.088c-2.253-0.964-3.857-2.203-4.806-3.716c-0.949-1.516-1.424-3.122-1.424-4.828
			c0-1.996,0.621-3.721,1.858-5.167C5.049,3.084,6.7,1.997,8.76,1.271c2.059-0.725,4.297-1.085,6.711-1.085
			c2.832,0,5.438,0.409,7.821,1.231c2.382,0.819,4.347,1.856,5.89,3.113l-3.621,5.312c-1.127-0.773-2.534-1.48-4.223-2.124
			c-1.692-0.646-3.552-0.967-5.579-0.967c-4.152,0-6.228,1.08-6.228,3.235c0,0.998,0.458,1.785,1.375,2.363
			c0.917,0.582,2.487,1.111,4.708,1.596c2.864,0.612,5.232,1.246,7.098,1.906c1.868,0.661,3.534,1.731,5,3.212
			c1.464,1.479,2.196,3.478,2.196,5.987c0,2.254-0.676,4.136-2.028,5.647c-1.354,1.513-3.066,2.625-5.144,3.333
			c-2.077,0.707-4.208,1.061-6.396,1.061C13.734,35.094,11.32,34.734,9.1,34.011z"/>
		<path fill="#ffffff" d="M76.794,0.716v33.752h-7.195V12.836l-9.753,13.52l-9.705-13.567v21.681h-7.195V0.716h6.761l10.139,14.728
			L69.89,0.716H76.794z"/>
		<path fill="#ffffff" d="M99.634,7.188H89.061V0.716h28.486v6.472h-10.525v27.28h-7.387V7.188L99.634,7.188z"/>
		<path fill="#ffffff" d="M134.543,32.754c-2.704-1.562-4.804-3.669-6.301-6.326c-1.496-2.656-2.245-5.59-2.245-8.812
			c0-3.187,0.749-6.114,2.245-8.788c1.497-2.671,3.598-4.786,6.301-6.35c2.706-1.56,5.796-2.342,9.271-2.342
			c3.508,0,6.615,0.782,9.319,2.342c2.703,1.562,4.806,3.67,6.301,6.326c1.497,2.657,2.246,5.594,2.246,8.812
			c0,3.223-0.749,6.155-2.246,8.812c-1.495,2.657-3.605,4.765-6.324,6.326c-2.722,1.561-5.818,2.34-9.295,2.34
			C140.339,35.094,137.249,34.315,134.543,32.754z M149.078,26.91c1.544-0.917,2.751-2.188,3.621-3.814
			c0.868-1.625,1.305-3.451,1.305-5.479c0-2.06-0.429-3.895-1.282-5.505c-0.853-1.607-2.051-2.864-3.597-3.767
			c-1.544-0.899-3.313-1.354-5.311-1.354c-1.965,0-3.717,0.453-5.263,1.354c-1.544,0.901-2.745,2.158-3.598,3.767
			c-0.853,1.61-1.279,3.445-1.279,5.505c0,2.028,0.434,3.854,1.305,5.479c0.869,1.627,2.075,2.897,3.621,3.814
			c1.545,0.919,3.284,1.377,5.215,1.377C145.778,28.287,147.532,27.829,149.078,26.91z"/>
		<path fill="#ffffff" d="M170.515,0.716h7.726l6.373,21.585l6.714-21.585h5.744l7.05,21.536l6.084-21.536h7.676L206.97,34.468
			h-5.794l-7.002-21.823l-6.952,21.823h-5.796L170.515,0.716z"/>
		<path fill="#ffffff" d="M229.954,0.716h6.711l16.032,21.392l0.047-21.392h7.196v33.752h-6.713l-16.079-21.583v21.583h-7.195
			L229.954,0.716L229.954,0.716z"/>
	</g>
	<path fill="#ffffff" d="M295.016,33.777c-1.816-0.752-3.268-1.834-4.352-3.253c-1.083-1.419-1.625-3.118-1.625-5.093
		c0-1.562,0.564-3.188,1.697-4.88c1.131-1.689,2.924-3.189,5.379-4.494c-0.955-1.052-1.707-2.097-2.246-3.131
		c-0.543-1.037-0.812-2.415-0.812-4.137c0-1.117,0.326-2.32,0.98-3.611c0.652-1.294,1.68-2.407,3.082-3.349
		c1.404-0.939,3.174-1.41,5.31-1.41c1.274,0,2.604,0.264,3.993,0.789c1.387,0.524,2.551,1.347,3.49,2.464
		c0.939,1.112,1.412,2.501,1.412,4.16c0,2.168-0.592,3.921-1.771,5.261c-1.179,1.337-2.677,2.501-4.494,3.489
		c2.01,1.945,3.826,3.603,5.451,4.974c0.385-0.671,0.654-1.544,0.814-2.628h6.119c-0.062,0.796-0.256,1.832-0.572,3.106
		c-0.32,1.275-0.86,2.566-1.627,3.873l5.644,5.116l-3.969,4.161l-4.974-4.639c-0.767,1.146-2.279,2.16-4.543,3.037
		c-2.265,0.875-4.4,1.313-6.41,1.313C298.827,34.899,296.833,34.523,295.016,33.777z M306.972,25.956l-6.601-5.979
		c-1.211,0.573-2.191,1.221-2.939,1.938c-0.75,0.717-1.125,1.649-1.125,2.798c0,1.181,0.449,2.089,1.342,2.728
		c0.892,0.639,2.008,0.954,3.346,0.954C303.45,28.394,305.442,27.582,306.972,25.956z M304.438,11.347
		c0.637-0.688,0.955-1.538,0.955-2.558c0-0.895-0.294-1.597-0.885-2.105c-0.59-0.511-1.33-0.766-2.223-0.766
		c-0.668,0-1.33,0.223-1.984,0.672c-0.654,0.444-1.059,1.129-1.221,2.055c-0.029,0.127-0.049,0.303-0.049,0.527
		c0,1.271,0.799,2.676,2.395,4.207C302.795,12.711,303.799,12.031,304.438,11.347z"/>
	<path fill="#ffffff" d="M339.157,34.015c-2.199-0.72-4.035-1.556-5.5-2.511c-1.467-0.957-2.535-1.804-3.203-2.535l4.687-5.119
		c3.349,2.968,6.979,4.45,10.902,4.45c1.914,0,3.45-0.302,4.614-0.909c1.164-0.605,1.746-1.466,1.746-2.584
		c0-1.084-0.473-1.912-1.41-2.485c-0.94-0.572-2.192-1.053-3.754-1.437l-1.961-0.431c-1.754-0.412-3.095-0.74-4.018-0.979
		c-0.926-0.239-1.932-0.598-3.014-1.077c-2.23-0.955-3.816-2.182-4.758-3.681c-0.94-1.498-1.412-3.092-1.412-4.785
		c0-1.975,0.615-3.683,1.842-5.113c1.227-1.438,2.863-2.512,4.902-3.23c2.041-0.716,4.258-1.074,6.646-1.074
		c2.807,0,5.389,0.406,7.749,1.219c2.356,0.813,4.304,1.841,5.832,3.087l-3.586,5.259c-1.117-0.765-2.513-1.466-4.185-2.104
		c-1.676-0.637-3.517-0.955-5.524-0.955c-4.111,0-6.168,1.067-6.168,3.202c0,0.99,0.454,1.77,1.362,2.346
		c0.908,0.571,2.463,1.1,4.662,1.575c2.836,0.607,5.183,1.235,7.028,1.891c1.851,0.653,3.499,1.715,4.952,3.183
		c1.45,1.465,2.176,3.439,2.176,5.929c0,2.231-0.672,4.097-2.01,5.595s-3.037,2.599-5.094,3.301c-2.055,0.7-4.168,1.052-6.336,1.052
		C343.747,35.09,341.356,34.733,339.157,34.015z"/>
	<path fill="#ffffff" d="M379.567,7.449h-10.473V1.041h28.214v6.407h-10.425v27.02h-7.316V7.449L379.567,7.449z"/>
	<path fill="#ffffff" d="M413.663,32.77c-2.676-1.547-4.758-3.634-6.24-6.266c-1.482-2.628-2.225-5.538-2.225-8.727
		c0-3.155,0.742-6.057,2.225-8.704c1.482-2.646,3.564-4.74,6.24-6.289c2.68-1.545,5.738-2.318,9.184-2.318
		c3.475,0,6.553,0.773,9.23,2.318c2.676,1.549,4.756,3.638,6.238,6.267c1.483,2.631,2.225,5.54,2.225,8.728
		c0,3.188-0.74,6.099-2.225,8.727c-1.482,2.632-3.57,4.719-6.265,6.266c-2.692,1.55-5.765,2.32-9.205,2.32
		C419.401,35.09,416.341,34.32,413.663,32.77z M428.056,26.983c1.531-0.907,2.728-2.166,3.589-3.774
		c0.858-1.611,1.291-3.421,1.291-5.43c0-2.04-0.423-3.855-1.269-5.45c-0.845-1.598-2.031-2.839-3.562-3.73
		c-1.531-0.894-3.285-1.339-5.261-1.339c-1.944,0-3.685,0.445-5.213,1.339c-1.531,0.893-2.72,2.134-3.563,3.73
		c-0.845,1.595-1.267,3.41-1.267,5.45c0,2.009,0.431,3.817,1.291,5.43c0.86,1.608,2.056,2.867,3.586,3.774
		c1.531,0.91,3.254,1.363,5.166,1.363C424.79,28.346,426.526,27.893,428.056,26.983z"/>
	<path fill="#ffffff" d="M452.399,1.041h16.977c2.295,0,4.232,0.518,5.811,1.555c1.576,1.035,2.75,2.375,3.514,4.016
		c0.769,1.644,1.148,3.356,1.148,5.143c0,2.041-0.461,3.962-1.387,5.763s-2.295,3.148-4.115,4.04l7.318,12.912h-7.984l-6.838-11.858
		h-7.127v11.858h-7.316V1.041L452.399,1.041z M467.655,16.343c1.559,0,2.828-0.374,3.801-1.122c0.973-0.749,1.459-1.89,1.459-3.422
		c0-1.528-0.471-2.662-1.41-3.396c-0.941-0.731-2.148-1.098-3.611-1.098h-8.178v9.036L467.655,16.343L467.655,16.343z"/>
	<path fill="#ffffff" d="M493.337,1.041h25.918v6.266h-18.601v6.646h13.579v6.216h-13.579V28.2h18.841v6.268h-26.157L493.337,1.041
		L493.337,1.041z"/>
</g>
</svg>
