<?xml version="1.0" encoding="utf-8"?>
<!-- Generator: Adobe Illustrator 16.0.0, SVG Export Plug-In . SVG Version: 6.00 Build 0)  -->
<!DOCTYPE svg PUBLIC "-//W3C//DTD SVG 1.1//EN" "http://www.w3.org/Graphics/SVG/1.1/DTD/svg11.dtd">
<svg version="1.1" id="Layer_1" xmlns="http://www.w3.org/2000/svg" xmlns:xlink="http://www.w3.org/1999/xlink" x="0px" y="0px"
	 width="22.093px" height="22.092px" viewBox="0 0 22.093 22.092" enable-background="new 0 0 22.093 22.092" xml:space="preserve">
<g>
	<path fill="#ffffff" d="M11.046,1.99c2.949,0,3.299,0.012,4.465,0.065c1.076,0.049,1.661,0.229,2.051,0.381
		c0.479,0.176,0.914,0.459,1.27,0.826c0.367,0.356,0.65,0.791,0.826,1.27c0.152,0.39,0.332,0.974,0.381,2.051
		c0.053,1.165,0.064,1.515,0.064,4.464c0,2.95-0.012,3.3-0.064,4.464c-0.049,1.077-0.229,1.662-0.381,2.052
		c-0.371,0.963-1.133,1.724-2.096,2.096c-0.39,0.151-0.975,0.331-2.051,0.381c-1.166,0.053-1.516,0.064-4.465,0.064
		s-3.299-0.012-4.463-0.064c-1.078-0.05-1.662-0.229-2.052-0.381c-0.479-0.177-0.914-0.459-1.271-0.826
		c-0.367-0.356-0.648-0.79-0.826-1.27c-0.15-0.39-0.331-0.975-0.38-2.052c-0.054-1.164-0.065-1.514-0.065-4.464
		c0-2.949,0.012-3.299,0.065-4.464c0.049-1.077,0.229-1.661,0.38-2.051c0.178-0.479,0.459-0.914,0.826-1.27
		c0.357-0.367,0.791-0.65,1.271-0.826c0.389-0.152,0.973-0.332,2.051-0.381C7.747,2.001,8.097,1.99,11.046,1.99 M11.046,0
		c-3,0-3.376,0.013-4.555,0.067C5.316,0.12,4.513,0.307,3.811,0.58C3.073,0.858,2.406,1.292,1.854,1.854
		c-0.562,0.552-0.998,1.22-1.275,1.957C0.308,4.514,0.12,5.316,0.067,6.492C0.013,7.67,0,8.046,0,11.046
		c0,3.001,0.013,3.376,0.067,4.555c0.053,1.175,0.24,1.979,0.513,2.682c0.277,0.737,0.712,1.404,1.274,1.956
		c0.552,0.562,1.219,0.996,1.956,1.273c0.702,0.273,1.506,0.461,2.682,0.514c1.179,0.055,1.554,0.066,4.554,0.066
		c3.001,0,3.377-0.012,4.555-0.066c1.176-0.053,1.979-0.24,2.682-0.514c1.484-0.573,2.656-1.746,3.23-3.229
		c0.273-0.702,0.46-1.507,0.514-2.682c0.054-1.179,0.066-1.554,0.066-4.555c0-3-0.013-3.376-0.066-4.555
		c-0.054-1.175-0.24-1.978-0.514-2.681c-0.277-0.737-0.712-1.405-1.274-1.957c-0.552-0.562-1.22-0.996-1.956-1.274
		c-0.703-0.273-1.506-0.46-2.682-0.513C14.423,0.013,14.046,0,11.046,0L11.046,0L11.046,0z"/>
	<path fill="#ffffff" d="M11.046,5.374c-3.133,0-5.672,2.54-5.672,5.672s2.539,5.673,5.672,5.673s5.673-2.54,5.673-5.673l0,0
		C16.719,7.914,14.179,5.374,11.046,5.374z M11.046,14.729c-2.033-0.001-3.682-1.649-3.682-3.683s1.648-3.683,3.682-3.683
		c2.034,0,3.683,1.649,3.683,3.683S13.08,14.729,11.046,14.729z"/>
	<circle fill="#ffffff" cx="16.942" cy="5.15" r="1.326"/>
</g>
</svg>
