<?xml version="1.0" encoding="utf-8"?>
<!-- Generator: Adobe Illustrator 16.0.0, SVG Export Plug-In . SVG Version: 6.00 Build 0)  -->
<!DOCTYPE svg PUBLIC "-//W3C//DTD SVG 1.1//EN" "http://www.w3.org/Graphics/SVG/1.1/DTD/svg11.dtd">
<svg version="1.1" id="Layer_1" xmlns="http://www.w3.org/2000/svg" xmlns:xlink="http://www.w3.org/1999/xlink" x="0px" y="0px"
	 width="20.693px" height="25.512px" viewBox="0 0 20.693 25.512" enable-background="new 0 0 20.693 25.512" xml:space="preserve">
<g>
	<path fill="#ffffff" d="M11.374,2.43c1.662-2.19,3.972-2.2,3.972-2.2s0.344,2.06-1.308,4.042c-1.762,2.117-3.764,1.771-3.764,1.771
		S9.896,4.377,11.374,2.43z"/>
	<path fill="#ffffff" d="M10.484,7.484c0.855,0,2.44-1.175,4.506-1.175c3.554,0,4.951,2.529,4.951,2.529s-2.734,1.398-2.734,4.79
		c0,3.826,3.407,5.146,3.407,5.146s-2.382,6.702-5.598,6.702c-1.479,0-2.627-0.995-4.184-0.995c-1.586,0-3.159,1.031-4.185,1.031
		C3.71,25.512,0,19.155,0,14.044c0-5.028,3.142-7.665,6.086-7.665C8.002,6.38,9.489,7.484,10.484,7.484z"/>
</g>
</svg>
