<?xml version="1.0" encoding="utf-8"?>
<!-- Generator: Adobe Illustrator 16.0.0, SVG Export Plug-In . SVG Version: 6.00 Build 0)  -->
<!DOCTYPE svg PUBLIC "-//W3C//DTD SVG 1.1//EN" "http://www.w3.org/Graphics/SVG/1.1/DTD/svg11.dtd">
<svg version="1.1" id="Layer_1" xmlns="http://www.w3.org/2000/svg" xmlns:xlink="http://www.w3.org/1999/xlink" x="0px" y="0px"
	 width="25.95px" height="21.084px" viewBox="0 0 25.95 21.084" enable-background="new 0 0 25.95 21.084" xml:space="preserve">
<path fill="#ffffff" d="M17.339,0.004V0h1.217l0.445,0.089c0.297,0.057,0.565,0.133,0.807,0.227
	c0.242,0.094,0.476,0.203,0.702,0.328c0.226,0.125,0.431,0.252,0.616,0.381c0.182,0.128,0.346,0.264,0.49,0.407
	c0.145,0.146,0.367,0.184,0.672,0.114c0.304-0.071,0.631-0.168,0.982-0.293s0.699-0.265,1.041-0.42
	c0.344-0.157,0.553-0.256,0.628-0.298c0.073-0.043,0.112-0.067,0.116-0.07l0.006-0.007l0.023-0.013l0.023-0.01l0.023-0.011
	l0.022-0.012l0.005-0.008l0.007-0.003l0.007-0.005l0.006-0.008l0.022-0.007l0.023-0.003L25.221,0.41l-0.008,0.034l-0.012,0.036
	l-0.012,0.036l-0.011,0.023l-0.013,0.023l-0.012,0.035c-0.007,0.023-0.016,0.054-0.022,0.093c-0.008,0.04-0.082,0.196-0.223,0.469
	c-0.141,0.272-0.316,0.549-0.527,0.83c-0.21,0.282-0.399,0.494-0.565,0.636c-0.169,0.146-0.28,0.247-0.335,0.306
	c-0.055,0.058-0.121,0.113-0.199,0.163L23.165,3.17l-0.023,0.013l-0.023,0.01l-0.004,0.008l-0.007,0.003L23.101,3.21l-0.006,0.007
	l-0.021,0.011l-0.024,0.013l-0.005,0.007l-0.008,0.003L23.03,3.257l-0.005,0.008l-0.005,0.006l-0.008,0.005l-0.006,0.005
	l-0.006,0.007h0.117l0.656-0.14c0.437-0.094,0.854-0.208,1.252-0.339l0.631-0.211l0.07-0.023l0.035-0.011l0.023-0.013L25.81,2.54
	l0.023-0.013l0.023-0.012l0.047-0.006l0.047-0.005V2.55l-0.011,0.006l-0.013,0.007l-0.004,0.006l-0.007,0.005l-0.009,0.005
	l-0.004,0.006l-0.005,0.007l-0.007,0.005l-0.008,0.003L25.88,2.609l-0.005,0.007l-0.007,0.005l-0.012,0.024l-0.012,0.023
	l-0.006,0.004c-0.005,0.006-0.104,0.137-0.298,0.398c-0.194,0.262-0.301,0.395-0.316,0.397c-0.015,0.005-0.038,0.029-0.065,0.071
	c-0.026,0.044-0.192,0.218-0.496,0.521c-0.305,0.304-0.602,0.576-0.895,0.812c-0.293,0.238-0.441,0.532-0.443,0.88
	c-0.005,0.346-0.023,0.738-0.055,1.175c-0.031,0.437-0.089,0.909-0.176,1.416c-0.084,0.506-0.219,1.08-0.396,1.72
	c-0.18,0.639-0.398,1.262-0.656,1.871c-0.258,0.609-0.525,1.154-0.807,1.639c-0.281,0.482-0.539,0.893-0.772,1.228
	c-0.234,0.335-0.472,0.651-0.714,0.948s-0.547,0.631-0.917,1c-0.371,0.37-0.573,0.574-0.608,0.609
	c-0.035,0.034-0.188,0.162-0.459,0.385c-0.268,0.223-0.557,0.445-0.866,0.67c-0.307,0.221-0.589,0.405-0.847,0.553
	c-0.258,0.148-0.567,0.318-0.932,0.509c-0.361,0.191-0.752,0.37-1.174,0.532c-0.422,0.164-0.866,0.316-1.334,0.457
	c-0.469,0.141-0.92,0.25-1.357,0.327c-0.437,0.077-0.932,0.146-1.486,0.198l-0.83,0.082v0.014H7.417V21.07l-0.199-0.01
	c-0.131-0.01-0.24-0.017-0.326-0.024c-0.086-0.009-0.41-0.052-0.971-0.129c-0.562-0.077-1.003-0.155-1.322-0.233
	c-0.32-0.079-0.796-0.227-1.428-0.445c-0.631-0.217-1.173-0.439-1.622-0.662c-0.447-0.221-0.729-0.361-0.842-0.42
	s-0.239-0.131-0.38-0.217l-0.21-0.129l-0.005-0.006l-0.008-0.006l-0.006-0.005l-0.005-0.005l-0.024-0.014l-0.023-0.011l-0.004-0.007
	l-0.008-0.006l-0.006-0.004l-0.005-0.007L0.02,18.725l-0.009-0.006H0v-0.045l0.023,0.004l0.022,0.006l0.105,0.012
	c0.071,0.008,0.262,0.021,0.574,0.036s0.643,0.015,0.994,0s0.709-0.052,1.076-0.105c0.367-0.056,0.801-0.148,1.299-0.28
	c0.499-0.133,0.957-0.291,1.376-0.473c0.416-0.185,0.713-0.321,0.89-0.413c0.176-0.089,0.44-0.253,0.801-0.496l0.537-0.362
	l0.004-0.007L7.71,16.59l0.007-0.005l0.005-0.007l0.005-0.008l0.007-0.004l0.007-0.004l0.005-0.008l0.024-0.006l0.023-0.006
	l0.005-0.023l0.006-0.023l0.007-0.004l0.005-0.007l-0.188-0.013c-0.124-0.008-0.246-0.016-0.362-0.022
	c-0.116-0.009-0.3-0.043-0.55-0.105c-0.25-0.062-0.519-0.156-0.808-0.281c-0.288-0.125-0.569-0.272-0.843-0.444
	c-0.272-0.172-0.471-0.314-0.592-0.428c-0.119-0.113-0.275-0.271-0.468-0.478c-0.189-0.208-0.355-0.421-0.496-0.64
	c-0.14-0.219-0.274-0.471-0.401-0.755l-0.195-0.427l-0.011-0.035L2.89,12.823L2.883,12.8l-0.005-0.024l0.035,0.005l0.035,0.008
	l0.258,0.035c0.171,0.024,0.44,0.03,0.808,0.024c0.366-0.01,0.62-0.024,0.76-0.048c0.14-0.024,0.226-0.038,0.258-0.048l0.046-0.011
	l0.059-0.013l0.059-0.011L5.2,12.711l0.006-0.006l0.008-0.004l0.004-0.007l-0.047-0.013l-0.047-0.011l-0.047-0.013l-0.046-0.012
	l-0.047-0.01c-0.032-0.008-0.086-0.023-0.165-0.047c-0.077-0.023-0.287-0.11-0.631-0.259c-0.344-0.147-0.615-0.292-0.818-0.432
	c-0.204-0.141-0.398-0.296-0.581-0.462c-0.183-0.169-0.383-0.385-0.601-0.65c-0.219-0.266-0.414-0.573-0.586-0.924
	c-0.172-0.352-0.3-0.686-0.386-1.006C1.132,8.539,1.075,8.214,1.048,7.885l-0.041-0.49L1.03,7.399l0.023,0.006l0.023,0.012
	l0.023,0.011l0.022,0.013l0.023,0.011l0.362,0.165C1.751,7.726,2.052,7.819,2.41,7.898c0.358,0.078,0.574,0.12,0.644,0.127
	l0.105,0.013H3.37L3.364,8.03L3.358,8.025L3.351,8.022L3.347,8.015L3.341,8.007L3.335,8.003L3.327,7.999L3.323,7.991L3.3,7.98
	L3.276,7.967L3.271,7.96L3.265,7.956L3.258,7.951L3.252,7.944L3.229,7.932L3.206,7.921L3.202,7.914C3.196,7.911,3.129,7.86,3,7.764
	C2.871,7.665,2.737,7.538,2.597,7.383c-0.141-0.157-0.279-0.32-0.42-0.491C2.035,6.719,1.91,6.536,1.802,6.341
	S1.577,5.898,1.456,5.597c-0.12-0.3-0.213-0.602-0.274-0.906c-0.063-0.303-0.097-0.603-0.104-0.9c-0.009-0.297,0-0.55,0.023-0.76
	c0.022-0.211,0.068-0.448,0.14-0.715C1.31,2.051,1.411,1.771,1.545,1.474L1.744,1.03l0.011-0.035l0.013-0.036l0.007-0.004
	l0.004-0.007L1.783,0.94L1.79,0.936L1.798,0.94l0.004,0.007l0.004,0.007l0.008,0.004l0.008,0.005l0.004,0.007l0.004,0.008
	l0.008,0.003l0.012,0.024L1.859,1.03l0.009,0.005l0.004,0.007l0.316,0.35c0.21,0.234,0.459,0.495,0.748,0.784
	c0.289,0.289,0.449,0.439,0.479,0.449c0.032,0.014,0.071,0.049,0.117,0.108c0.046,0.058,0.202,0.196,0.468,0.415
	c0.266,0.217,0.613,0.472,1.042,0.76C5.472,4.196,5.948,4.481,6.47,4.762c0.522,0.28,1.084,0.535,1.686,0.76
	c0.6,0.227,1.021,0.375,1.264,0.444c0.24,0.071,0.654,0.16,1.24,0.27c0.584,0.109,1.024,0.18,1.322,0.21
	c0.295,0.032,0.498,0.049,0.607,0.055l0.164,0.003L12.747,6.47l-0.006-0.034l-0.047-0.293c-0.031-0.195-0.047-0.468-0.047-0.818
	c0-0.353,0.027-0.676,0.082-0.971c0.055-0.297,0.137-0.597,0.246-0.902c0.109-0.303,0.215-0.547,0.32-0.731
	c0.105-0.184,0.244-0.391,0.416-0.625c0.172-0.234,0.395-0.476,0.667-0.726c0.272-0.249,0.585-0.472,0.936-0.667
	c0.352-0.196,0.676-0.344,0.972-0.445c0.297-0.101,0.546-0.167,0.748-0.199C17.237,0.026,17.339,0.009,17.339,0.004z"/>
</svg>
