<?xml version="1.0" encoding="utf-8"?>
<!-- Generator: Adobe Illustrator 16.0.0, SVG Export Plug-In . SVG Version: 6.00 Build 0)  -->
<!DOCTYPE svg PUBLIC "-//W3C//DTD SVG 1.1//EN" "http://www.w3.org/Graphics/SVG/1.1/DTD/svg11.dtd">
<svg version="1.1" id="Layer_1" xmlns="http://www.w3.org/2000/svg" xmlns:xlink="http://www.w3.org/1999/xlink" x="0px" y="0px"
	 width="28.882px" height="20.344px" viewBox="0 0 28.882 20.344" enable-background="new 0 0 28.882 20.344" xml:space="preserve">
<path fill="#ffffff" d="M28.278,3.177c-0.332-1.251-1.311-2.236-2.553-2.57C23.472,0,14.44,0,14.44,0S5.409,0,3.157,0.607
	c-1.243,0.334-2.221,1.319-2.554,2.57C0,5.444,0,10.174,0,10.174s0,4.73,0.604,6.998c0.333,1.25,1.311,2.234,2.554,2.569
	c2.252,0.607,11.283,0.607,11.283,0.607s9.031,0,11.285-0.607c1.242-0.335,2.221-1.319,2.553-2.569
	c0.604-2.268,0.604-6.998,0.604-6.998S28.882,5.444,28.278,3.177 M11.487,14.469V5.88l7.549,4.294L11.487,14.469z"/>
</svg>
