<?xml version="1.0" encoding="utf-8"?>
<!-- Generator: Adobe Illustrator 16.0.0, SVG Export Plug-In . SVG Version: 6.00 Build 0)  -->
<!DOCTYPE svg PUBLIC "-//W3C//DTD SVG 1.1//EN" "http://www.w3.org/Graphics/SVG/1.1/DTD/svg11.dtd">
<svg version="1.1" id="Layer_1" xmlns="http://www.w3.org/2000/svg" xmlns:xlink="http://www.w3.org/1999/xlink" x="0px" y="0px"
	 width="103.125px" height="49.5px" viewBox="0 0 103.125 49.5" enable-background="new 0 0 103.125 49.5" xml:space="preserve">
<path fill="#3D435F" d="M75.398,49.5c-0.295,0-0.592-0.119-0.809-0.354c-0.412-0.447-0.383-1.144,0.061-1.556L99.422,24.75
	L74.652,1.909c-0.447-0.412-0.475-1.107-0.062-1.555c0.412-0.446,1.107-0.476,1.555-0.062l25.646,23.65
	c0.227,0.208,0.354,0.501,0.354,0.809s-0.127,0.601-0.354,0.809L76.145,49.208C75.934,49.404,75.666,49.5,75.398,49.5z"/>
<path fill="#3D435F" d="M27.725,49.5c-0.267,0-0.534-0.097-0.745-0.291L1.334,25.56c-0.226-0.208-0.354-0.501-0.354-0.809
	s0.128-0.601,0.354-0.809l25.647-23.65c0.446-0.412,1.142-0.382,1.554,0.062c0.412,0.447,0.384,1.143-0.063,1.555L3.701,24.751
	l24.77,22.84c0.447,0.412,0.475,1.106,0.063,1.555C28.318,49.38,28.022,49.5,27.725,49.5z"/>
</svg>
