<?xml version="1.0" encoding="utf-8"?>
<!-- Generator: Adobe Illustrator 16.0.0, SVG Export Plug-In . SVG Version: 6.00 Build 0)  -->
<!DOCTYPE svg PUBLIC "-//W3C//DTD SVG 1.1//EN" "http://www.w3.org/Graphics/SVG/1.1/DTD/svg11.dtd">
<svg version="1.1" id="Layer_1" xmlns="http://www.w3.org/2000/svg" xmlns:xlink="http://www.w3.org/1999/xlink" x="0px" y="0px"
	 width="33px" height="33px" viewBox="0 0 55.5 49.5" enable-background="new 0 0 25.5 30.415" xml:space="preserve">
<g>
	<path fill="#ffffff" class="st0" d="M32.7,45.7c-0.6,0-1.2-0.2-1.7-0.5l-13.1-8.9l-13,8.9c-0.9,0.6-2.1,0.7-3.1,0.2c-1-0.5-1.6-1.6-1.6-2.7v-34
		c0-1.3,1.1-2.4,2.4-2.4h30.9c1.3,0,2.4,1.1,2.4,2.4v34c0,1.1-0.6,2.2-1.6,2.7C33.6,45.6,33.1,45.7,32.7,45.7z M17.9,33.8
		c0.5,0,0.9,0.1,1.4,0.4l13.1,8.9l0,0c0.3,0.2,0.5,0.1,0.6,0c0.1,0,0.3-0.2,0.3-0.5v-34L2.4,8.8l0.1,33.9c0,0.3,0.2,0.5,0.3,0.5
		c0.1,0,0.3,0.1,0.6,0l13.1-8.9C16.9,33.9,17.4,33.8,17.9,33.8z"/>
	<path fill="#ffffff" class="st0" d="M40.7,39.7c-0.7,0-1.2-0.6-1.2-1.2v-36L8.9,2.5c-0.7,0-1.2-0.6-1.2-1.2C7.6,0.6,8.2,0,8.9,0h30.6
		c1.3,0,2.4,1.1,2.4,2.4v36C41.9,39.1,41.4,39.7,40.7,39.7z"/>
</g>
</svg>
